REM MD5 22b7f89509e8e2ce3afb88c611a9823b
FILE "Tomb Raider II - Starring Lara Croft (France) (En,Fr,De) (Demo).bin" BINARY
  TRACK 01 MODE2/2352
    INDEX 01 00:00:00
  TRACK 02 AUDIO
    INDEX 00 06:56:20
    INDEX 01 06:58:20
  TRACK 03 AUDIO
    INDEX 00 09:44:67
    INDEX 01 09:46:67
REM LEADOUT 14:46:67
